<?xml version="1.0" encoding="utf-8"?>
<!-- Generator: Adobe Illustrator 16.0.0, SVG Export Plug-In . SVG Version: 6.00 Build 0)  -->
<!DOCTYPE svg PUBLIC "-//W3C//DTD SVG 1.1//EN" "http://www.w3.org/Graphics/SVG/1.1/DTD/svg11.dtd">
<svg version="1.1" id="Layer_1" xmlns="http://www.w3.org/2000/svg" xmlns:xlink="http://www.w3.org/1999/xlink" x="0px" y="0px"
	 width="16px" height="16px" viewBox="0 0 16 16" enable-background="new 0 0 16 16" xml:space="preserve">
<path stroke="#000000" stroke-width="0.15" stroke-miterlimit="10" d="M8.321,10.313c0,0.184-0.144,0.332-0.321,0.332
	s-0.321-0.148-0.321-0.332v-3.83l-1.38,1.419c-0.125,0.129-0.33,0.129-0.455,0s-0.125-0.339,0-0.468l1.929-1.984
	c0.125-0.129,0.329-0.129,0.455,0c0,0,0,0,0,0l1.928,1.984c0.126,0.129,0.126,0.339,0,0.468c-0.125,0.129-0.329,0.129-0.454,0
	l-1.38-1.419V10.313z"/>
<path fill="#CCCCCC" d="M8,0C3.582,0,0,3.582,0,8c0,4.418,3.582,8,8,8c4.418,0,8-3.582,8-8C16,3.582,12.418,0,8,0z M8,15.25
	c-4.004,0-7.25-3.245-7.25-7.25c0-4.004,3.246-7.25,7.25-7.25c4.005,0,7.25,3.246,7.25,7.25C15.25,12.005,12.005,15.25,8,15.25z"/>
</svg>
