<?xml version="1.0" encoding="UTF-8"?>
<svg id="Vrstva_2" data-name="Vrstva 2" xmlns="http://www.w3.org/2000/svg" viewBox="0 0 38.06 38.06">
  <defs>
    <style>
      .cls-1 {
        fill: #e3ce9f;
      }
    </style>
  </defs>
  <g id="Vrstva_1-2" data-name="Vrstva 1">
    <g>
      <path class="cls-1" d="m19.03,15.55c-1.92,0-3.48,1.56-3.48,3.48s1.56,3.48,3.48,3.48,3.48-1.56,3.48-3.48-1.56-3.48-3.48-3.48Z"/>
      <path class="cls-1" d="m27.16,12.88c-.19-.49-.42-.83-.78-1.2-.36-.37-.71-.59-1.2-.78-.37-.14-.92-.31-1.94-.36-1.1-.05-1.43-.06-4.22-.06s-3.12.01-4.22.06c-1.02.05-1.57.22-1.94.36-.49.19-.83.42-1.2.78-.36.37-.59.71-.78,1.2-.14.37-.31.92-.36,1.94-.05,1.1-.06,1.43-.06,4.22s.01,3.12.06,4.22c.05,1.02.22,1.57.36,1.94.19.49.42.83.78,1.2.37.36.71.59,1.2.78.37.14.92.31,1.94.36,1.1.05,1.43.06,4.22.06s3.12-.01,4.22-.06c1.02-.05,1.57-.22,1.94-.36.49-.19.83-.42,1.2-.78.37-.37.59-.71.78-1.2.14-.37.31-.92.36-1.94.05-1.1.06-1.43.06-4.22s-.01-3.12-.06-4.22c-.05-1.02-.22-1.57-.36-1.94Zm-8.13,11.51c-2.96,0-5.36-2.4-5.36-5.36s2.4-5.36,5.36-5.36,5.36,2.4,5.36,5.36-2.4,5.36-5.36,5.36Zm5.57-9.68c-.69,0-1.25-.56-1.25-1.25s.56-1.25,1.25-1.25,1.25.56,1.25,1.25-.56,1.25-1.25,1.25Z"/>
      <path class="cls-1" d="m19.03,0C8.52,0,0,8.52,0,19.03h0c0,10.51,8.52,19.03,19.03,19.03s19.03-8.52,19.03-19.03h0C38.06,8.52,29.54,0,19.03,0Zm10.37,23.33c-.05,1.11-.23,1.87-.49,2.53-.27.69-.62,1.27-1.2,1.85s-1.16.94-1.85,1.2c-.66.26-1.42.43-2.53.48-1.11.05-1.47.06-4.3.06s-3.19-.01-4.3-.06c-1.11-.05-1.87-.23-2.53-.48-.69-.27-1.27-.62-1.85-1.2s-.94-1.16-1.2-1.85c-.26-.66-.43-1.42-.48-2.53-.05-1.11-.06-1.47-.06-4.3s.01-3.19.06-4.3c.05-1.11.23-1.87.48-2.53.27-.69.62-1.27,1.2-1.85s1.16-.94,1.85-1.2c.66-.26,1.42-.43,2.53-.49,1.11-.05,1.47-.06,4.3-.06s3.19.01,4.3.06c1.11.05,1.87.23,2.53.49.69.27,1.27.62,1.85,1.2s.94,1.16,1.2,1.85c.26.66.43,1.42.49,2.53.05,1.11.06,1.47.06,4.3s-.01,3.19-.06,4.3Z"/>
    </g>
  </g>
</svg>