<?xml version="1.0" encoding="utf-8"?>
<!-- Generator: Adobe Illustrator 16.0.0, SVG Export Plug-In . SVG Version: 6.00 Build 0)  -->
<!DOCTYPE svg PUBLIC "-//W3C//DTD SVG 1.1//EN" "http://www.w3.org/Graphics/SVG/1.1/DTD/svg11.dtd">
<svg version="1.1" id="Layer_2" xmlns="http://www.w3.org/2000/svg" xmlns:xlink="http://www.w3.org/1999/xlink" x="0px" y="0px"
	 width="822.118px" height="822.992px" viewBox="0 0 822.118 822.992" enable-background="new 0 0 822.118 822.992"
	 xml:space="preserve">
<path fill="#E4CEA1" d="M820.178,405.495c9.844,257.316-213.415,422.734-417.302,417.37
	c-206.26-5.432-415.45-176.724-401.185-440.853C11.694,196.436,172.41-13.208,442.323,1.697
	C656.427,13.514,832.876,209.92,820.178,405.495z"/>
<path fill="#F4F5F7" d="M324.339,234.356c0.698,18.225-15.115,29.941-29.556,29.561c-14.608-0.384-29.424-12.517-28.414-31.224
	c0.708-13.143,12.091-27.992,31.208-26.936C312.741,206.595,325.239,220.505,324.339,234.356z"/>
<path fill="#F4F5F7" d="M321.402,554.996c-17.46,0-34.675,0-52.098,0c0-79.402,0-158.672,0-238.196c17.334,0,34.613,0,52.098,0
	C321.402,396.101,321.402,475.377,321.402,554.996z"/>
<path fill="#F4F5F7" d="M437.12,351.089c10.902-21.348,27.545-32.751,48.411-36.227c12.577-2.095,25.173-0.982,37.517,2.582
	c22.022,6.359,35.947,22.65,42.647,47.273c3.386,12.441,5.407,25.263,5.505,38.341c0.321,43.008,0.513,86.02,0.741,129.027
	c0.034,6.787,0.005,13.574,0.005,20.635c-21.009,0-41.793,0-63.067,0c0-1.397,0-2.832,0-4.267c0-38.96,0.173-77.923-0.124-116.882
	c-0.07-9.411-0.892-19.025-2.762-28.165c-4.018-19.619-17.379-27.51-34.82-25.162c-6.66,0.896-12.819,2.794-18.144,7.599
	c-7.656,6.913-11.012,16.626-12.532,27.163c-1.049,7.252-1.517,14.692-1.546,22.051c-0.146,37.725-0.066,75.449-0.066,113.173
	c0,1.454,0,2.908,0,4.557c-21.146,0-41.922,0-62.882,0c0-77.563,0-154.938,0-232.626c19.915,0,39.817,0,60.421,0
	c0,10.404,0,20.753,0,31.1C436.656,351.202,436.888,351.146,437.12,351.089z"/>
</svg>
