<?xml version="1.0" encoding="UTF-8"?>
<svg id="Vrstva_2" data-name="Vrstva 2" xmlns="http://www.w3.org/2000/svg" viewBox="0 0 38.06 38.06">
  <defs>
    <style>
      .cls-1 {
        fill: #e3ce9f;
      }
    </style>
  </defs>
  <g id="Vrstva_1-2" data-name="Vrstva 1">
    <g>
      <polygon class="cls-1" points="16.68 22.44 22.68 19.03 16.68 15.62 16.68 22.44"/>
      <path class="cls-1" d="m19.03,0h0C8.52,0,0,8.52,0,19.03h0c0,10.51,8.52,19.03,19.03,19.03h0c10.51,0,19.03-8.52,19.03-19.03h0C38.06,8.52,29.54,0,19.03,0Zm10.99,24.59c-.26.99-1.04,1.78-2.03,2.04-1.79.48-8.96.48-8.96.48,0,0-7.17,0-8.96-.48-.99-.27-1.76-1.05-2.03-2.04-.48-1.8-.48-5.56-.48-5.56,0,0,0-3.76.48-5.56.26-.99,1.04-1.78,2.03-2.04,1.79-.48,8.96-.48,8.96-.48,0,0,7.17,0,8.96.48.99.27,1.76,1.05,2.03,2.04.48,1.8.48,5.56.48,5.56,0,0,0,3.76-.48,5.56Z"/>
    </g>
  </g>
</svg>