<?xml version="1.0" encoding="utf-8"?>
<!-- Generator: Adobe Illustrator 16.0.0, SVG Export Plug-In . SVG Version: 6.00 Build 0)  -->
<!DOCTYPE svg PUBLIC "-//W3C//DTD SVG 1.1//EN" "http://www.w3.org/Graphics/SVG/1.1/DTD/svg11.dtd">
<svg version="1.1" id="Vrstva_2" xmlns="http://www.w3.org/2000/svg" xmlns:xlink="http://www.w3.org/1999/xlink" x="0px" y="0px"
	 width="612px" height="792px" viewBox="0 0 612 792" enable-background="new 0 0 612 792" xml:space="preserve">
<g id="Vrstva_1-2">
	<path fill="#FDC6BA" d="M306,90L306,90C137,90,0,227,0,396l0,0c0,168.999,137,306,306,306l0,0c168.999,0,306-137.001,306-306l0,0
		C612,227,474.999,90,306,90z M385.273,284.566h-37.466c-13.186,0-15.919,5.467-15.919,19.135v32.963h53.385l-5.146,57.888h-48.239
		v173.02h-69.144V395.196h-36.019v-58.691h36.019v-46.149c0-43.416,23.155-65.928,74.61-65.928h47.918V284.566L385.273,284.566z"/>
</g>
</svg>
